<svg xmlns="http://www.w3.org/2000/svg" viewBox="0 0 32 32">
  <rect width="32" height="32" rx="6" fill="#14110E"/>
  <path transform="translate(5.62 21.81) scale(0.6627)" d="M12.57-5.79Q12.57-3.19 10.93-1.42Q9.29 0.35 7.13 0.35Q6.18 0.35 5.26 0.06Q4.34-0.23 3.53-0.73L2.66 0.62L1.93 0.46Q1.99-0.41 2.02-1.63Q2.04-2.85 2.04-3.98L2.04-15.42Q2.04-15.82 1.86-16.22Q1.68-16.62 1.39-16.79Q1.17-16.95 0.65-17.02Q0.13-17.10-0.19-17.12L-0.19-17.87L4.05-18.14L4.22-17.96L4.22-10.35L4.30-10.32Q5.03-11.10 5.89-11.48Q6.75-11.87 7.58-11.87Q9.71-11.87 11.14-10.18Q12.57-8.50 12.57-5.79M10.13-5.71Q10.13-6.57 9.94-7.48Q9.75-8.38 9.35-9.05Q8.95-9.73 8.31-10.15Q7.66-10.57 6.76-10.57Q5.94-10.57 5.33-10.25Q4.71-9.93 4.22-9.37L4.22-2.65Q4.29-2.37 4.49-1.99Q4.70-1.62 5.05-1.28Q5.40-0.95 5.85-0.74Q6.29-0.54 6.94-0.54Q8.37-0.54 9.25-1.92Q10.13-3.30 10.13-5.71M31.50-11.55L31.50-10.80Q31.01-10.76 30.44-10.39Q29.87-10.03 29.61-9.30Q29.03-7.58 28.51-6.04Q27.98-4.50 27.34-2.58Q27.13-1.97 26.91-1.27Q26.70-0.56 26.52 0.08L25.51 0.08L22.41-8.43L19.28 0.08L18.32 0.08Q17.44-2.52 16.60-5.08Q15.76-7.64 15.12-9.54Q14.93-10.09 14.40-10.41Q13.88-10.72 13.38-10.78L13.38-11.55L18.54-11.55L18.54-10.73Q18.15-10.72 17.70-10.61Q17.25-10.49 17.25-10.22Q17.25-10.17 17.29-10.02Q17.33-9.87 17.39-9.69Q17.77-8.46 18.24-6.94Q18.71-5.43 19.46-3L22.42-11.32L23.54-11.32L26.55-3.12Q27.06-4.69 27.56-6.16Q28.05-7.63 28.43-8.92Q28.51-9.22 28.59-9.47Q28.66-9.73 28.66-9.97Q28.66-10.18 28.48-10.35Q28.29-10.51 28.02-10.62Q27.79-10.71 27.51-10.76Q27.23-10.80 27.11-10.80L27.11-11.55" fill="#ECE3D5"/>
</svg>
